<svg version="1.1" id="Layer_1" xmlns="http://www.w3.org/2000/svg" xmlns:xlink="http://www.w3.org/1999/xlink" x="0px" y="0px"
	 width="100%" viewBox="0 0 1024 1024" enable-background="new 0 0 1024 1024" xml:space="preserve">
<path fill="#000000" opacity="1.000000" stroke="none" 
	d="
M163.169556,557.204712 
	C161.279831,552.352722 159.565247,547.843811 158.132416,543.247070 
	C157.263412,540.459106 155.798889,539.187500 152.759644,539.247742 
	C145.105850,539.399536 137.445602,539.377502 129.790863,539.250488 
	C126.956421,539.203369 125.478455,540.319946 124.893959,543.043457 
	C124.547104,544.659668 123.865799,546.203125 123.350174,547.784302 
	C119.735657,558.868225 115.412033,560.938660 103.101456,557.195923 
	C103.439964,552.556824 105.598419,548.375000 107.073494,544.052551 
	C114.432014,522.489807 122.021263,501.005615 129.329788,479.426239 
	C130.434845,476.163452 132.103851,475.032623 135.413849,474.925323 
	C151.802856,474.393951 151.948700,474.274048 157.484833,489.925049 
	C164.803543,510.615570 171.874817,531.393799 179.005127,552.150513 
	C179.528366,553.673706 180.443466,555.193542 179.688583,557.603149 
	C174.447388,558.517151 168.978745,558.687561 163.169556,557.204712 
M131.516205,523.005310 
	C137.826355,526.636108 144.410278,523.803955 151.894714,524.575439 
	C148.382309,513.866455 145.192032,504.139557 142.001740,494.412689 
	C141.584900,494.460388 141.168045,494.508118 140.751190,494.555817 
	C137.703934,503.817230 134.656662,513.078674 131.516205,523.005310 
z"/>
<path fill="#000000" opacity="1.000000" stroke="none" 
	d="
M428.045532,543.990967 
	C437.407593,543.678101 441.120728,541.318237 441.664764,535.634399 
	C442.260345,529.411560 439.305084,526.474609 430.439240,524.227478 
	C424.160614,522.636108 417.702393,521.670105 411.743439,518.932556 
	C402.793457,514.820862 398.229279,507.759674 398.233246,498.010925 
	C398.237030,488.732697 402.202942,481.350250 410.880035,477.611481 
	C424.743530,471.637878 438.494995,472.336731 451.491974,480.304993 
	C456.632721,483.456665 456.566772,484.378876 453.038422,489.231232 
	C452.744659,489.635254 452.474731,490.056671 452.179108,490.459290 
	C447.851959,496.352509 447.828949,496.387726 441.676331,492.514221 
	C435.492432,488.621094 428.725739,488.392426 421.895020,489.649811 
	C418.298370,490.311859 415.527008,492.400787 415.283508,496.690338 
	C415.050354,500.797791 417.025421,503.297516 420.600372,504.801575 
	C426.022522,507.082764 431.914551,507.466949 437.534943,508.949280 
	C446.516174,511.317932 454.609711,514.833130 457.971313,524.585754 
	C463.086578,539.425903 455.789246,554.053528 440.555115,557.721191 
	C425.217834,561.413635 410.770050,559.496582 398.818481,547.845337 
	C396.080566,545.176208 395.419006,542.724304 398.566315,539.886292 
	C401.013428,537.679688 402.117004,533.506653 405.356934,532.889771 
	C408.803101,532.233582 409.859192,536.703613 412.375610,538.487366 
	C416.991364,541.759155 421.850342,544.003418 428.045532,543.990967 
z"/>
<path fill="#000000" opacity="1.000000" stroke="none" 
	d="
M286.399261,536.540771 
	C291.333649,546.083435 304.099030,548.212830 310.770721,540.519165 
	C313.696014,537.145752 315.886230,537.002808 318.998810,539.574219 
	C319.889618,540.310120 320.906525,540.938721 321.952118,541.433960 
	C325.799622,543.255981 325.396088,545.631836 323.161102,548.552307 
	C315.705811,558.294189 305.454132,560.442139 294.132446,558.921692 
	C275.247040,556.385681 267.701355,542.343201 268.255890,525.120667 
	C268.416321,520.138367 269.181671,515.206360 271.250702,510.548676 
	C280.290253,490.199554 307.568970,490.952820 317.776825,500.082916 
	C326.086182,507.514984 326.927673,517.414795 326.010590,527.643677 
	C325.703369,531.070251 322.574829,530.812012 320.139832,530.833435 
	C310.152344,530.921509 300.163361,530.945312 290.175781,530.875793 
	C286.225739,530.848267 284.323547,532.024292 286.399261,536.540771 
M304.767212,508.503174 
	C296.866913,504.870056 285.773895,508.996368 286.342896,519.680420 
	C292.390900,519.680420 298.481049,519.709351 304.570770,519.671753 
	C309.948242,519.638611 311.170258,517.478638 308.679260,512.565613 
	C307.911407,511.051239 306.822235,509.840302 304.767212,508.503174 
z"/>
<path fill="#000000" opacity="1.000000" stroke="none" 
	d="
M527.492737,541.196655 
	C521.150330,554.994934 508.179352,561.563354 493.196594,558.857361 
	C478.514313,556.205688 469.762390,546.236389 468.587646,530.974548 
	C468.214417,526.125488 468.339417,521.330994 469.464447,516.598816 
	C472.965912,501.870789 484.601776,493.256439 499.946198,493.983643 
	C516.388855,494.762939 526.899902,503.927887 529.406982,519.200562 
	C530.627380,526.635132 530.036865,533.769165 527.492737,541.196655 
M512.569519,532.763611 
	C512.737183,527.640747 513.390625,522.496826 511.756195,517.464233 
	C509.724121,511.207275 505.470337,508.234924 498.604156,508.324371 
	C492.532471,508.403442 488.216949,511.576447 486.500427,517.492798 
	C484.903320,522.997437 484.699341,528.616882 486.063416,534.197632 
	C488.006989,542.149353 492.317322,545.265747 500.411621,544.805176 
	C506.957489,544.432739 509.804871,541.770630 512.569519,532.763611 
z"/>
<path fill="#000000" opacity="1.000000" stroke="none" 
	d="
M790.132629,526.987061 
	C789.677490,533.442139 788.826294,539.362305 785.855713,544.729736 
	C779.709412,555.835266 766.176331,561.398010 752.222473,558.615723 
	C739.107605,556.000732 730.289062,546.546326 728.710144,533.519775 
	C728.023743,527.856506 728.106567,522.250854 729.418213,516.682312 
	C733.307007,500.171265 745.689453,493.563049 760.343994,494.120575 
	C777.186157,494.761353 787.335144,504.274139 789.374878,520.104919 
	C789.650757,522.246094 789.883911,524.392822 790.132629,526.987061 
M747.714417,514.388550 
	C744.486877,521.721008 744.300049,529.244202 746.782532,536.751221 
	C748.677124,542.480469 752.615173,544.859741 759.085938,544.850098 
	C765.495972,544.840515 769.469482,542.365295 771.406189,536.722168 
	C773.451599,530.762329 773.245850,524.650024 771.992065,518.533081 
	C770.869324,513.055542 767.625366,509.532074 762.144104,508.599396 
	C756.619202,507.659241 751.489258,508.499786 747.714417,514.388550 
z"/>
<path fill="#000000" opacity="1.000000" stroke="none" 
	d="
M803.614624,512.001953 
	C803.618591,507.507355 803.757629,503.506592 803.585388,499.519226 
	C803.444458,496.255157 804.888489,494.941986 807.997742,495.063049 
	C808.994568,495.101868 809.994812,495.052399 810.993469,495.049011 
	C818.824097,495.022644 818.824097,495.023071 819.805237,503.928619 
	C824.090088,497.875305 829.370056,494.768158 835.858765,494.231079 
	C848.456421,493.188385 858.120422,498.209564 859.425049,512.415771 
	C860.691956,526.210632 859.737732,540.019409 860.031982,553.817810 
	C860.099792,556.997375 858.521301,558.216309 855.411682,558.213745 
	C841.013123,558.201965 843.842224,559.050720 843.638428,547.148499 
	C843.490234,538.495178 843.680176,529.836365 843.570862,521.181946 
	C843.453796,511.908295 840.827637,508.497009 833.972595,508.309998 
	C826.056458,508.094025 820.717041,512.747742 820.373718,521.031799 
	C819.953674,531.169739 820.144653,541.332642 820.057190,551.484680 
	C820.001587,557.937378 819.765564,558.194580 813.239136,558.192261 
	C802.246460,558.188293 803.687744,558.712341 803.634155,548.456299 
	C803.571533,536.471680 803.616638,524.486450 803.614624,512.001953 
z"/>
<path fill="#000000" opacity="1.000000" stroke="none" 
	d="
M588.933472,557.434204 
	C580.476379,553.502625 578.225342,546.155518 577.955933,538.282715 
	C577.517334,525.464905 577.874207,512.621460 577.749878,499.790253 
	C577.715942,496.295898 579.283508,495.200165 582.549805,495.020233 
	C594.352661,494.370178 594.344604,494.295807 594.341858,506.129028 
	C594.339661,515.461731 594.285400,524.794983 594.375061,534.126892 
	C594.437012,540.568848 596.434204,543.713501 600.730835,544.657288 
	C607.281982,546.096375 612.859619,543.541687 615.341125,537.958191 
	C616.515259,535.316345 616.822327,532.523926 616.822876,529.664062 
	C616.824890,519.998169 616.966309,510.330658 616.822083,500.667206 
	C616.762024,496.647491 618.211914,494.997803 622.340210,495.012512 
	C635.737854,495.060211 633.213379,494.643250 633.308044,505.420746 
	C633.445740,521.085083 633.208374,536.753235 633.409241,552.416199 
	C633.463989,556.686584 632.260498,558.777222 627.790039,558.205139 
	C627.297974,558.142151 626.791199,558.192993 626.291199,558.193604 
	C618.294678,558.203552 618.294678,558.203674 617.099426,549.788330 
	C609.501526,559.240112 600.135315,561.326477 588.933472,557.434204 
z"/>
<path fill="#000000" opacity="1.000000" stroke="none" 
	d="
M912.278564,497.478912 
	C914.922852,499.216492 918.834106,500.422241 918.404419,503.224365 
	C917.839600,506.907654 914.222412,509.425140 911.396973,511.950470 
	C909.760376,513.413208 908.316956,511.872437 906.992065,510.907166 
	C902.726746,507.799805 898.005432,506.597534 892.830261,507.734741 
	C890.468933,508.253601 888.363220,509.325897 888.171631,512.209351 
	C887.984741,515.022583 889.688538,516.639893 892.056030,517.354736 
	C896.191833,518.603455 900.435730,519.489075 904.608826,520.620789 
	C916.372803,523.810913 921.592590,529.886353 921.251465,539.899597 
	C920.921936,549.572449 914.373657,556.453003 902.984253,558.586975 
	C892.926331,560.471497 883.364624,558.930054 874.857910,552.983521 
	C869.250427,549.063660 869.216553,547.403259 873.864685,542.554626 
	C874.556641,541.832886 875.328674,541.170471 875.922607,540.375305 
	C878.381104,537.083618 880.544312,537.647705 883.198120,540.381348 
	C886.983765,544.281006 891.890503,545.908203 897.286987,545.629944 
	C900.700684,545.453918 904.204224,544.786682 904.705383,540.493225 
	C905.182617,536.404358 902.144836,535.113525 898.934570,534.204224 
	C894.134338,532.844604 889.202759,531.842468 884.547791,530.099060 
	C876.288330,527.005676 872.164490,520.953857 872.327576,513.111877 
	C872.501587,504.747589 877.186218,498.468079 885.654053,495.769440 
	C894.565613,492.929413 903.376038,493.415863 912.278564,497.478912 
z"/>
<path fill="#000000" opacity="1.000000" stroke="none" 
	d="
M669.319458,512.697754 
	C669.319153,520.611267 669.274780,528.100647 669.334106,535.589172 
	C669.395508,543.325073 673.526550,546.367065 680.614685,543.507996 
	C684.093994,542.104614 685.546936,543.151672 686.440918,546.323486 
	C686.846191,547.761597 687.309143,549.196045 687.896301,550.567810 
	C689.212158,553.641907 688.191589,555.487061 685.247498,556.923584 
	C668.759460,564.968323 652.988220,555.507751 652.742126,537.286926 
	C652.636475,529.466492 652.602112,521.640808 652.773254,513.822754 
	C652.852234,510.211182 652.050293,507.927155 647.866882,508.360229 
	C644.580444,508.700439 643.067566,506.986511 643.680420,503.929718 
	C644.283447,500.921448 641.224731,495.645172 646.580872,495.405548 
	C652.455933,495.142761 653.166687,492.445679 652.696045,487.912659 
	C652.330444,484.391571 653.802185,482.756439 657.440552,482.536194 
	C661.041199,482.318268 665.196289,479.769745 668.040039,481.628937 
	C670.956238,483.535492 669.071960,488.117889 669.299622,491.512878 
	C669.474976,494.128601 670.738708,494.997314 673.107727,494.985107 
	C676.269348,494.968811 679.431519,495.043365 682.593018,495.018555 
	C685.699707,494.994171 687.216125,496.433838 687.076477,499.585022 
	C687.010254,501.080292 686.991455,502.581390 687.037781,504.077179 
	C687.133057,507.151855 685.958191,508.698364 682.611938,508.465027 
	C679.465515,508.245636 676.290466,508.471924 673.129883,508.410767 
	C670.437561,508.358704 669.031006,509.447083 669.319458,512.697754 
z"/>
<path fill="#000000" opacity="1.000000" stroke="none" 
	d="
M363.230591,547.047363 
	C363.332123,547.803223 363.343109,548.138367 363.401123,548.465210 
	C365.155029,558.343506 363.325256,560.278870 353.254639,559.190735 
	C344.601440,558.255798 338.805359,552.368225 338.732819,543.615479 
	C338.542389,520.645325 338.664459,497.672668 338.545959,474.701630 
	C338.530365,471.672638 339.557068,470.585419 342.576447,470.625092 
	C357.487946,470.820923 354.998627,469.053772 355.089111,482.417999 
	C355.208618,500.061981 355.136902,517.707703 355.061371,535.352234 
	C355.039978,540.356567 354.543121,545.459961 361.973907,545.188782 
	C362.351990,545.174988 362.765137,546.122742 363.230591,547.047363 
z"/>
<path fill="#000000" opacity="1.000000" stroke="none" 
	d="
M565.320496,558.766052 
	C550.410767,560.566528 542.984741,554.243958 542.885498,539.680664 
	C542.742493,518.701050 542.982300,497.718475 542.788574,476.739655 
	C542.743958,471.900299 544.390503,470.404572 549.143677,470.574249 
	C560.916748,470.994446 559.274353,469.408142 559.331970,480.665558 
	C559.427490,499.314606 559.390686,517.964661 559.330261,536.614014 
	C559.315735,541.104614 559.436279,545.251709 565.638489,544.928284 
	C565.949829,544.911987 566.352722,545.001770 566.576233,545.197937 
	C569.655334,547.901062 567.921692,551.791321 568.915955,555.042358 
	C569.615479,557.329468 567.635986,558.163513 565.320496,558.766052 
z"/>
<path fill="#000000" opacity="1.000000" stroke="none" 
	d="
M217.468658,510.246094 
	C209.583908,512.308105 206.590988,516.688416 206.390259,526.613342 
	C206.211868,535.432556 206.197922,544.261292 206.400681,553.079163 
	C206.491333,557.021545 205.008759,558.338318 201.155518,558.278564 
	C188.116776,558.076477 189.828140,559.268005 189.769684,547.182434 
	C189.694809,531.701294 189.876099,516.217712 189.650269,500.739502 
	C189.586197,496.347809 191.080063,494.554596 195.387756,495.003845 
	C196.375656,495.106873 197.383774,495.012634 198.382553,495.015198 
	C205.649216,495.033905 205.649216,495.034393 206.622650,502.764923 
	C211.156296,496.871857 216.732162,493.864716 223.989807,494.781342 
	C228.967972,495.410095 229.980179,496.744904 229.100433,501.645996 
	C227.553101,510.266266 227.553101,510.266266 217.468658,510.246094 
z"/>
<path fill="#000000" opacity="1.000000" stroke="none" 
	d="
M243.294449,495.046112 
	C256.687500,494.938019 254.965424,494.518127 255.000748,506.266632 
	C255.046219,521.392090 254.868896,536.519409 255.053513,551.642639 
	C255.112381,556.464417 253.697647,558.528687 248.518845,558.308472 
	C237.746719,557.850342 238.029938,559.713745 238.055801,547.694397 
	C238.089066,532.236389 238.064194,516.778259 238.031281,501.320221 
	C238.024094,497.944153 238.125885,494.758881 243.294449,495.046112 
z"/>
<path fill="#000000" opacity="1.000000" stroke="none" 
	d="
M698.638611,545.982544 
	C698.634583,530.863403 698.819153,516.236816 698.524170,501.619843 
	C698.424866,496.699951 699.753601,494.835571 704.895874,494.938538 
	C715.168945,495.144257 715.177002,494.894348 715.170837,505.319489 
	C715.161621,520.939270 715.038818,536.560242 715.204468,552.178162 
	C715.251709,556.626770 713.881775,558.415649 709.203613,558.280090 
	C696.630981,557.915894 698.903931,559.371338 698.638611,545.982544 
z"/>
<path fill="#000000" opacity="1.000000" stroke="none" 
	d="
M138.729874,596.067261 
	C137.100159,598.048584 138.499557,598.874878 139.493835,600.041748 
	C144.947861,606.442566 142.223846,614.383301 133.930634,615.700012 
	C130.026321,616.319946 125.966110,616.005493 121.976204,616.020203 
	C119.769806,616.028259 118.661125,614.863892 118.671234,612.577515 
	C118.708824,604.082764 118.709854,595.587830 118.693184,587.092957 
	C118.688728,584.820312 119.745605,583.717529 122.014786,583.736450 
	C125.511078,583.765625 129.041214,583.476379 132.496628,583.862366 
	C138.989136,584.587646 141.532013,589.519714 138.729874,596.067261 
M137.344742,607.895081 
	C138.047363,605.115112 137.199387,602.729736 134.590942,601.750427 
	C131.319839,600.522461 127.696510,600.416626 124.440025,601.724854 
	C122.338562,602.569031 122.910316,610.525940 124.915825,611.468445 
	C127.908684,612.874939 134.561829,611.291138 137.344742,607.895081 
M123.841339,588.547668 
	C122.119431,597.360962 123.852547,597.094849 131.588852,596.550049 
	C133.777283,596.395874 135.233292,594.759583 135.439224,592.582336 
	C135.650436,590.349121 134.404526,588.804565 132.207016,588.177490 
	C129.629868,587.442139 127.034447,586.955261 123.841339,588.547668 
z"/>
<path fill="#000000" opacity="1.000000" stroke="none" 
	d="
M835.330688,597.093506 
	C836.229675,602.479797 835.910645,607.478821 835.798706,612.466125 
	C835.764526,613.989136 835.470459,615.696960 833.451721,615.654602 
	C831.500488,615.613586 831.151428,613.982544 831.118347,612.415283 
	C831.034058,608.420776 831.068176,604.423767 830.969666,600.429810 
	C830.911316,598.064392 830.876221,595.564392 827.592651,595.291626 
	C824.669556,595.048645 822.862427,596.485291 821.949036,599.176025 
	C820.736206,602.748657 821.510071,606.444336 821.296997,610.079163 
	C821.219238,611.405518 821.272766,612.748840 821.077881,614.056274 
	C820.909668,615.184692 820.050598,615.751709 818.910156,615.621521 
	C817.215393,615.428040 816.820801,614.161377 816.803772,612.737610 
	C816.757935,608.908936 816.749207,605.079712 816.747192,601.250671 
	C816.745605,598.266541 816.632812,595.249023 812.549377,595.318604 
	C808.818298,595.382080 807.334961,597.825562 807.227966,601.249756 
	C807.118774,604.743286 807.180725,608.242249 807.069885,611.735657 
	C807.012451,613.547852 807.063416,615.807983 804.451294,615.704895 
	C801.945862,615.606018 802.581543,613.393250 802.578796,611.839233 
	C802.568787,606.178955 802.597839,600.517883 802.685913,594.858276 
	C802.730164,592.011353 803.857544,590.544434 806.380066,592.991577 
	C807.429382,594.009521 807.716675,593.353333 808.310181,592.895691 
	C812.690369,589.518616 816.671814,590.734924 820.379089,593.995056 
	C828.636780,589.177185 832.606140,589.911499 835.330688,597.093506 
z"/>
<path fill="#000000" opacity="1.000000" stroke="none" 
	d="
M652.272339,592.151428 
	C653.618774,595.872253 653.825806,599.335022 653.430115,602.833191 
	C652.531555,610.778320 648.350281,614.689941 639.585754,615.878662 
	C628.352539,617.402222 627.633728,616.792419 627.628357,605.687317 
	C627.625488,599.865906 627.595215,594.044067 627.668091,588.223511 
	C627.687805,586.651978 627.328613,584.890625 629.389282,583.976257 
	C636.320312,580.900574 648.158264,584.920410 652.272339,592.151428 
M647.287598,592.439697 
	C644.624451,587.985046 640.222229,588.031189 635.841370,588.009949 
	C633.370117,587.997986 632.213379,589.181946 632.233826,591.682800 
	C632.278625,597.173462 632.231323,602.664734 632.249023,608.155701 
	C632.254028,609.696594 632.434937,611.022522 634.349182,611.603333 
	C641.633118,613.813721 648.344971,609.146729 648.691040,601.482849 
	C648.818970,598.649719 648.834045,595.815552 647.287598,592.439697 
z"/>
<path fill="#000000" opacity="1.000000" stroke="none" 
	d="
M533.579956,600.473511 
	C534.430481,603.226868 535.149109,605.607300 536.102600,608.765747 
	C538.254578,604.701477 538.138977,600.711853 539.406860,597.160522 
	C540.159546,595.052185 539.469727,591.067322 543.154846,592.097900 
	C545.866760,592.856323 543.803650,595.827698 543.410461,597.730957 
	C542.401733,602.613464 541.202332,607.458069 540.002502,612.298828 
	C539.555542,614.102356 538.937012,615.869446 536.552612,615.927734 
	C534.190857,615.985413 533.445740,614.304321 532.889526,612.508484 
	C531.634155,608.455505 530.452271,604.379822 528.997009,599.496338 
	C526.602051,603.876282 526.118774,607.865662 524.884338,611.594482 
	C524.216614,613.611694 523.865417,616.034912 520.900208,615.880859 
	C518.260498,615.743713 517.972229,613.636719 517.495911,611.659302 
	C515.948730,605.236328 514.352417,598.825256 512.646240,591.885986 
	C518.905029,591.342346 517.600403,596.109558 518.529419,598.779175 
	C519.597778,601.849182 520.128967,605.106079 521.205139,609.576599 
	C522.863831,604.055298 524.146423,599.820007 525.405762,595.577942 
	C525.920105,593.845398 526.062073,591.856323 528.571777,591.760742 
	C531.053406,591.666138 531.476074,593.627014 532.083130,595.304688 
	C532.647339,596.863770 533.001465,598.498962 533.579956,600.473511 
z"/>
<path fill="#000000" opacity="1.000000" stroke="none" 
	d="
M408.327637,592.045410 
	C408.322113,598.865601 408.356506,605.195007 408.291107,611.523376 
	C408.260986,614.437866 408.196442,617.619324 403.898560,614.707397 
	C402.551300,613.794617 401.739471,614.984741 400.738922,615.349060 
	C393.524811,617.975769 388.346588,615.107300 386.479523,607.618530 
	C385.678619,604.406128 385.898132,601.341003 386.885132,598.281860 
	C389.087921,591.454285 394.214905,589.635437 403.235718,592.509155 
	C404.297455,590.142578 403.527344,587.629456 403.789886,585.214111 
	C403.961578,583.634521 404.177490,582.073669 406.235687,582.166626 
	C407.994110,582.246033 408.237671,583.671448 408.273132,585.059814 
	C408.328369,587.223633 408.312500,589.389343 408.327637,592.045410 
M400.380768,595.967285 
	C393.717834,593.210327 389.822845,597.807312 391.250214,606.796387 
	C391.726227,609.794189 393.381226,611.610352 396.483032,611.837708 
	C399.603302,612.066223 402.369354,611.035889 403.170990,607.885925 
	C404.192841,603.870422 404.811401,599.633606 400.380768,595.967285 
z"/>
<path fill="#000000" opacity="1.000000" stroke="none" 
	d="
M790.037903,615.584839 
	C786.147644,616.988647 782.831604,616.153992 779.015808,614.182373 
	C779.015808,617.220642 779.092163,619.689941 778.988403,622.151550 
	C778.921753,623.732605 778.432678,625.209473 776.379822,625.059143 
	C774.558777,624.925842 774.403442,623.489380 774.411621,622.136230 
	C774.465759,613.144592 774.566345,604.153198 774.649475,595.161743 
	C774.674988,592.396545 775.673950,590.790405 778.587891,592.384399 
	C780.349182,593.347900 781.423096,592.062073 782.744324,591.617615 
	C789.448303,589.362366 795.398560,592.893921 796.264954,599.903748 
	C797.022156,606.030945 797.148438,612.060364 790.037903,615.584839 
M785.500488,595.285706 
	C779.935486,596.507141 778.076538,599.908936 779.334717,606.568970 
	C780.090881,610.571716 782.944885,612.551025 786.932251,611.799316 
	C790.521179,611.122742 791.761719,608.609863 791.825195,605.299316 
	C791.909302,600.914856 792.261230,596.334595 785.500488,595.285706 
z"/>
<path fill="#000000" opacity="1.000000" stroke="none" 
	d="
M429.352417,609.074341 
	C432.239288,611.947571 435.507751,612.197083 438.899902,611.564392 
	C441.057556,611.161987 442.410919,609.769531 442.672821,607.480835 
	C442.934570,605.193726 442.030762,603.508667 439.886963,602.738953 
	C437.387634,601.841614 434.777771,601.254089 432.271057,600.374817 
	C427.363403,598.653503 425.015381,595.150330 425.760437,590.513977 
	C426.518738,585.795288 429.863373,583.947693 434.213531,583.458496 
	C437.775238,583.057983 441.212341,583.461304 444.230560,585.581421 
	C445.330170,586.353760 446.409637,587.347534 445.472412,588.898804 
	C444.572205,590.388733 443.354431,590.160522 442.042450,589.386780 
	C439.708282,588.010132 437.281586,586.933105 434.468567,587.728333 
	C432.451569,588.298523 430.673431,589.197021 430.408203,591.571350 
	C430.136383,594.005127 431.701050,595.294312 433.685883,595.998047 
	C435.872681,596.773438 438.184143,597.189331 440.401825,597.887207 
	C445.581360,599.516968 448.055206,603.031189 447.548645,607.892517 
	C447.071228,612.473694 444.033508,615.514404 438.940002,616.160645 
	C434.110535,616.773315 429.624084,615.912109 426.101410,612.186584 
	C425.102997,611.130615 424.662537,609.891479 425.742615,608.614502 
	C426.923126,607.218811 428.055176,607.720398 429.352417,609.074341 
z"/>
<path fill="#000000" opacity="1.000000" stroke="none" 
	d="
M255.534790,474.983551 
	C257.312134,483.599701 253.711975,489.033722 246.491516,488.917877 
	C242.178345,488.848663 238.653793,486.989044 237.239807,482.629456 
	C235.907471,478.521545 236.460876,474.548248 240.099472,471.817322 
	C243.931747,468.940979 248.151062,469.029846 252.281067,471.418762 
	C253.593109,472.177734 254.662415,473.229736 255.534790,474.983551 
z"/>
<path fill="#000000" opacity="1.000000" stroke="none" 
	d="
M706.940979,469.743622 
	C711.623230,470.296173 715.151184,472.033478 716.123535,476.554626 
	C716.955688,480.424103 716.592773,484.259857 712.907471,486.807983 
	C709.346191,489.270416 705.543579,489.687958 701.656616,487.579437 
	C697.866150,485.523254 696.360046,482.173187 696.843506,478.016632 
	C697.393799,473.285400 700.549988,470.698456 706.940979,469.743622 
z"/>
<path fill="#000000" opacity="1.000000" stroke="none" 
	d="
M727.452026,604.773438 
	C723.542236,605.012695 720.055847,605.077698 716.571228,605.193054 
	C715.424805,605.231079 714.106567,605.162598 713.579346,606.487122 
	C713.014099,607.907349 713.699402,609.155762 714.699707,610.067932 
	C717.562744,612.678589 720.706421,612.543884 723.828979,610.588806 
	C725.217102,609.719727 726.688843,607.992004 727.981018,610.092834 
	C729.204407,612.082031 727.409790,613.434875 725.876160,614.493713 
	C719.711365,618.749634 711.106201,615.830566 708.799255,608.688965 
	C707.033691,603.223389 707.592163,598.020142 711.702209,593.855713 
	C714.876587,590.639282 718.997803,590.141602 723.274719,591.685059 
	C728.524963,593.579773 730.571655,599.359436 727.452026,604.773438 
M720.232300,600.862488 
	C721.649353,600.707153 723.280823,601.271423 724.412720,599.469971 
	C723.916138,596.458374 721.939575,595.110474 718.918640,595.171936 
	C715.930664,595.232666 714.014465,596.635559 713.556824,599.692688 
	C715.411255,601.506958 717.509583,600.642700 720.232300,600.862488 
z"/>
<path fill="#000000" opacity="1.000000" stroke="none" 
	d="
M861.988647,597.733337 
	C862.523987,605.024963 862.388550,605.167114 855.506226,605.149231 
	C853.673279,605.144470 851.837158,605.087219 850.008423,605.175598 
	C848.580688,605.244568 846.771423,604.909485 846.498169,607.048889 
	C846.285034,608.717163 847.246704,609.986328 848.569214,610.778870 
	C851.390137,612.469360 854.269897,612.432129 856.999084,610.499390 
	C858.369324,609.529053 859.873840,608.034973 861.168274,610.153870 
	C862.281921,611.976685 860.605774,613.299622 859.296753,614.252808 
	C855.770874,616.820068 851.842651,616.945435 847.886841,615.479858 
	C843.197144,613.742554 841.641479,609.728699 841.102417,605.234558 
	C840.304138,598.579590 843.612610,593.070801 849.213074,591.405701 
	C854.707947,589.771973 858.785278,591.680786 861.988647,597.733337 
M850.787354,600.866394 
	C852.979919,600.567810 855.436951,601.626526 857.326416,599.704285 
	C855.910034,595.288940 852.114441,593.735962 848.748962,596.148132 
	C847.661987,596.927124 846.527649,597.925354 846.756775,599.368958 
	C847.045776,601.190186 848.748047,600.676636 850.787354,600.866394 
z"/>
<path fill="#000000" opacity="1.000000" stroke="none" 
	d="
M258.734070,613.251709 
	C254.544662,607.731995 254.654434,602.069397 257.158905,596.450928 
	C259.106506,592.081726 264.211548,590.035706 268.956543,591.140930 
	C273.908051,592.294250 276.426666,595.542297 276.711487,600.801636 
	C276.872559,603.775635 275.661163,605.025879 272.697052,605.137817 
	C268.777100,605.285706 264.771759,604.505188 260.935272,605.807678 
	C261.421906,611.636414 265.823273,613.657837 271.196564,610.674805 
	C272.574921,609.909546 273.996613,607.960144 275.407166,609.983032 
	C276.859314,612.065491 274.683289,613.285889 273.336914,614.339905 
	C269.569183,617.289490 264.016083,616.915405 258.734070,613.251709 
M262.535553,600.791687 
	C264.700592,600.793274 266.866730,600.838989 269.030273,600.782959 
	C270.840363,600.736145 272.132782,599.813477 271.388824,597.948608 
	C270.141754,594.822632 267.262299,594.605347 264.632050,595.447388 
	C262.450958,596.145752 259.658783,597.249695 262.535553,600.791687 
z"/>
<path fill="#000000" opacity="1.000000" stroke="none" 
	d="
M607.643311,593.265076 
	C608.633972,594.643982 609.535034,595.684143 610.000183,596.892090 
	C612.346497,602.985229 610.862183,605.045227 604.357117,605.169983 
	C601.249878,605.229553 598.074036,604.613098 595.049255,605.755127 
	C595.215759,611.591309 600.079041,613.846741 605.458374,610.611755 
	C606.850891,609.774292 608.208130,607.987854 609.567017,610.124512 
	C610.747314,611.980286 608.871155,613.142761 607.647034,614.143860 
	C602.474426,618.374146 594.010620,616.531555 591.000549,610.585388 
	C588.427490,605.502502 589.244385,597.795105 592.740967,594.163818 
	C596.392090,590.372131 601.415894,589.973267 607.643311,593.265076 
M600.502197,600.880554 
	C602.352539,600.439514 605.413879,601.970398 605.462280,598.509644 
	C605.495178,596.168579 603.367859,595.296997 601.220947,595.170227 
	C597.632263,594.958313 595.198730,596.189209 595.039062,600.573608 
	C596.757019,600.686584 598.220276,600.782776 600.502197,600.880554 
z"/>
<path fill="#000000" opacity="1.000000" stroke="none" 
	d="
M670.760376,590.930298 
	C674.218689,591.556458 676.855164,592.761230 678.446472,595.650391 
	C681.807556,601.752625 679.964905,604.986755 673.130005,605.138794 
	C670.044434,605.207458 666.862305,604.551819 663.885864,605.829956 
	C664.494812,611.602478 669.052124,613.715820 674.214661,610.785339 
	C675.552795,610.025879 676.855469,607.915161 678.358826,610.004578 
	C679.871826,612.107178 677.716614,613.333008 676.368469,614.373779 
	C671.631165,618.031128 663.688049,616.514343 660.524902,611.464050 
	C654.905823,602.492615 659.857300,592.128418 670.760376,590.930298 
M671.819031,600.864319 
	C673.023743,600.645508 674.688293,601.108582 674.849915,599.191833 
	C674.970764,597.758179 674.065308,596.731689 672.935974,595.965393 
	C669.300110,593.498352 664.997192,595.650269 664.173523,600.882446 
	C666.509766,600.882446 668.766541,600.882446 671.819031,600.864319 
z"/>
<path fill="#000000" opacity="1.000000" stroke="none" 
	d="
M336.671234,603.807251 
	C339.288147,601.704529 342.156982,601.396729 344.871307,600.636230 
	C346.628174,600.143921 348.817078,599.612061 348.347137,597.214172 
	C347.882751,594.844666 345.612427,595.266663 343.812775,595.229919 
	C342.016510,595.193176 340.681824,596.203064 339.342590,597.212646 
	C338.252960,598.034058 337.186401,598.123596 336.349182,596.880066 
	C335.717194,595.941284 335.773651,594.892944 336.583984,594.139587 
	C339.743011,591.202759 343.439117,590.246887 347.663086,591.269897 
	C351.474335,592.192932 353.219513,594.673523 353.269409,598.475891 
	C353.310913,601.641113 353.295166,604.807068 353.325409,607.972412 
	C353.339691,609.467163 353.244659,610.989929 354.782135,611.971863 
	C355.995483,612.746704 356.935028,613.807007 355.836823,615.241760 
	C354.873566,616.500183 353.241943,616.497803 352.220154,615.668457 
	C349.994812,613.862183 348.168976,614.651428 345.895905,615.601746 
	C342.460815,617.037842 338.862457,616.862549 336.317322,613.733643 
	C333.814178,610.656372 334.044006,607.285034 336.671234,603.807251 
M346.115173,604.407227 
	C345.004547,604.689209 343.896637,604.982422 342.782745,605.250854 
	C340.629120,605.769836 339.188080,606.927673 339.406189,609.336670 
	C339.581879,611.277405 341.015411,612.242615 342.717133,612.437500 
	C345.525665,612.758972 347.613739,611.298706 348.299988,608.683960 
	C348.672424,607.264771 350.494690,604.603577 346.115173,604.407227 
z"/>
<path fill="#000000" opacity="1.000000" stroke="none" 
	d="
M560.858276,599.101562 
	C561.829163,594.107422 558.350281,595.256653 555.965942,595.377930 
	C554.762207,595.439148 553.574829,596.381836 552.437500,597.027283 
	C551.375244,597.630249 550.357361,598.251404 549.405823,596.964539 
	C548.390564,595.591736 548.953186,594.395996 550.124023,593.532227 
	C553.523254,591.024292 557.246216,590.067688 561.363953,591.551514 
	C565.269592,592.958923 566.088623,596.075745 566.377686,599.835510 
	C566.729065,604.405579 564.498413,609.513855 568.839417,613.415649 
	C569.100586,613.650452 568.927612,614.754822 568.600403,615.181152 
	C567.792542,616.233582 566.384827,616.459412 565.464417,615.757019 
	C563.150757,613.991272 561.210876,614.531738 558.732056,615.609070 
	C554.147461,617.601379 549.179260,615.504456 547.937561,611.571533 
	C546.399353,606.699585 548.542908,603.290161 554.091003,601.587158 
	C556.288086,600.912720 558.718384,600.897034 560.858276,599.101562 
M553.080688,611.294495 
	C555.164978,613.341370 557.382568,612.688354 559.355164,611.305847 
	C561.810181,609.585266 562.060913,607.089478 561.360779,604.375061 
	C553.586670,604.933960 552.435547,605.798706 553.080688,611.294495 
z"/>
<path fill="#000000" opacity="1.000000" stroke="none" 
	d="
M754.563538,616.066772 
	C748.202087,614.095764 745.860840,609.591980 745.859863,603.802734 
	C745.859070,598.980225 747.193665,594.461975 751.990112,592.150757 
	C756.358032,590.045959 760.828430,590.262878 764.593323,593.479797 
	C769.252991,597.461243 768.864441,602.986023 767.993042,608.259460 
	C767.235107,612.846680 763.892212,615.314697 759.423218,616.111023 
	C757.980469,616.368042 756.454285,616.156677 754.563538,616.066772 
M750.955017,600.492859 
	C749.862610,604.808594 750.022156,609.053040 754.332031,611.337708 
	C759.840820,614.257935 764.161804,610.033630 763.823303,602.510376 
	C763.668396,599.067505 762.631897,596.204712 758.916809,595.440674 
	C755.250061,594.686584 752.371521,595.835571 750.955017,600.492859 
z"/>
<path fill="#000000" opacity="1.000000" stroke="none" 
	d="
M457.431946,615.004883 
	C449.490356,608.575989 449.881134,595.847412 457.770355,592.094971 
	C462.171265,590.001709 467.598022,590.638367 470.773102,593.880432 
	C475.134369,598.333679 475.122681,603.736877 473.412018,609.217407 
	C471.876068,614.138062 468.038788,616.105713 463.102966,616.298584 
	C461.231598,616.371643 459.479584,615.948059 457.431946,615.004883 
M457.019165,608.283752 
	C458.963623,612.206604 462.291748,612.547729 465.870056,611.338928 
	C469.148285,610.231506 470.640015,605.338745 469.462738,600.471924 
	C468.729950,597.442810 466.972321,595.537109 463.672546,595.282715 
	C460.219604,595.016479 457.952820,596.422974 456.879639,599.735779 
	C456.039612,602.328796 456.138672,604.935608 457.019165,608.283752 
z"/>
<path fill="#000000" opacity="1.000000" stroke="none" 
	d="
M380.667480,614.058350 
	C377.551941,617.110657 376.541168,615.589294 376.456268,612.458252 
	C376.348450,608.481140 376.494720,604.493164 376.272400,600.524414 
	C376.114685,597.708740 375.194580,595.232971 371.615479,595.251648 
	C368.050476,595.270325 365.843079,597.182495 365.474091,600.534912 
	C365.058258,604.312744 365.301941,608.160645 365.198364,611.976501 
	C365.153931,613.614258 365.285248,615.640442 362.897064,615.619934 
	C360.480804,615.599060 360.702759,613.545349 360.691559,611.925049 
	C360.652557,606.279907 360.672333,600.634338 360.685577,594.988892 
	C360.691376,592.518799 361.677490,590.821716 364.279602,592.232300 
	C366.251099,593.301086 367.419586,592.027100 368.877136,591.531189 
	C375.022339,589.440125 379.469818,591.926636 380.572601,598.280579 
	C381.458252,603.383484 381.132416,608.533630 380.667480,614.058350 
z"/>
<path fill="#000000" opacity="1.000000" stroke="none" 
	d="
M234.306519,608.946167 
	C233.788605,611.594849 235.631042,615.403870 232.094238,615.506287 
	C228.363632,615.614197 229.879929,611.763489 229.774673,609.597046 
	C229.540939,604.787048 229.664307,599.957153 229.729355,595.136597 
	C229.748138,593.745605 229.746185,591.031860 231.449844,591.845581 
	C235.069550,593.574524 237.730713,591.096802 240.828964,590.859802 
	C245.427551,590.507996 248.600677,592.649963 249.605545,597.164062 
	C250.772842,602.407715 250.114777,607.757507 250.079666,613.063232 
	C250.069977,614.525513 249.364731,615.725708 247.687393,615.641663 
	C245.897385,615.552063 245.733948,614.103821 245.716324,612.734009 
	C245.667145,608.910706 245.679535,605.086609 245.642731,601.263123 
	C245.613434,598.222351 245.076904,595.536072 241.249008,595.245422 
	C237.394577,594.952698 235.196701,596.990967 234.596848,600.522217 
	C234.156281,603.115723 234.378860,605.822021 234.306519,608.946167 
z"/>
<path fill="#000000" opacity="1.000000" stroke="none" 
	d="
M883.752930,613.442017 
	C883.670959,609.017090 883.733093,605.027588 883.575134,601.046692 
	C883.457336,598.078491 882.838501,595.318176 878.946228,595.225769 
	C875.118286,595.134827 872.879639,597.199829 872.489502,600.746948 
	C872.073853,604.525452 872.326782,608.375610 872.246094,612.193665 
	C872.210022,613.896973 872.133850,615.794250 869.732422,615.614929 
	C867.696472,615.462952 867.724487,613.690857 867.715454,612.199951 
	C867.681091,606.553040 867.669250,600.905518 867.723511,595.258972 
	C867.737244,593.825012 867.870056,591.292297 869.608582,591.991028 
	C873.041199,593.370728 875.592224,591.202698 878.548645,590.891418 
	C883.305969,590.390442 886.647095,592.684387 887.619202,597.407898 
	C888.665894,602.493530 888.312805,607.687439 887.964417,612.799377 
	C887.765198,615.722595 886.203186,617.407349 883.752930,613.442017 
z"/>
<path fill="#000000" opacity="1.000000" stroke="none" 
	d="
M166.845306,614.901367 
	C163.221390,614.836914 159.976517,615.482422 156.607269,616.120178 
	C151.587585,617.070435 148.036926,614.003113 147.763412,609.067871 
	C147.497025,604.261597 147.659500,599.429993 147.687668,594.609863 
	C147.695206,593.316956 147.548340,591.736389 149.523941,591.709839 
	C151.550186,591.682617 151.959625,593.199829 152.001297,594.769531 
	C152.102722,598.590271 152.114807,602.413757 152.129608,606.236267 
	C152.140625,609.077026 152.429962,611.692261 156.122803,611.925781 
	C159.702194,612.152161 162.025986,610.360168 162.459351,606.968262 
	C162.919876,603.364075 162.620422,599.668457 162.800858,596.020142 
	C162.882797,594.363342 162.078888,591.875305 164.865326,591.754883 
	C168.086731,591.615662 167.286102,594.359497 167.292358,596.141602 
	C167.313919,602.284729 167.152435,608.428528 166.845306,614.901367 
z"/>
<path fill="#000000" opacity="1.000000" stroke="none" 
	d="
M302.654175,595.688354 
	C306.129974,590.783936 311.653534,589.410950 316.307922,592.033081 
	C317.594147,592.757751 319.200195,593.640808 318.502014,595.429932 
	C317.786682,597.263000 316.233551,596.925293 314.724731,596.188721 
	C313.843048,595.758423 312.879913,595.359497 311.919586,595.253784 
	C309.905060,595.032104 307.527527,594.897522 307.017487,597.416260 
	C306.543793,599.755676 308.731689,600.294250 310.504028,600.811707 
	C311.937744,601.230164 313.406982,601.535522 314.823090,602.003967 
	C318.163757,603.109070 320.198975,605.350769 320.145508,608.974609 
	C320.095428,612.369751 318.121735,614.580811 315.016449,615.602356 
	C310.853668,616.971680 306.797974,616.711792 303.243103,613.849548 
	C302.180786,612.994263 301.365417,611.784729 302.339386,610.379700 
	C303.359192,608.908508 304.559570,609.437744 305.783417,610.255981 
	C306.601135,610.802795 307.496796,611.387512 308.433289,611.572815 
	C311.096130,612.099915 314.356140,612.580688 315.195526,609.322815 
	C315.998016,606.208008 312.648529,605.996887 310.561005,605.335449 
	C303.504425,603.099731 302.382233,601.865417 302.654175,595.688354 
z"/>
<path fill="#000000" opacity="1.000000" stroke="none" 
	d="
M287.314575,604.888916 
	C283.572357,603.738342 280.754028,602.134888 280.531036,598.103882 
	C280.364777,595.098999 281.739777,592.965698 284.525238,591.836975 
	C288.309052,590.303711 292.023468,590.380249 295.475189,592.732361 
	C296.428345,593.381836 297.323792,594.362915 296.552216,595.682129 
	C295.843170,596.894409 294.763885,596.929688 293.521515,596.396851 
	C290.773560,595.218506 286.881165,593.410217 285.831573,597.088684 
	C284.705627,601.034607 289.438171,600.886597 292.060852,601.705139 
	C296.023254,602.941711 298.568085,605.165588 298.220367,609.563782 
	C297.865204,614.056519 294.688232,615.729736 290.740112,616.204712 
	C287.166992,616.634583 283.716370,616.195923 280.997162,613.466064 
	C280.134308,612.599854 279.547516,611.543579 280.486847,610.370544 
	C281.354736,609.286743 282.446899,609.158691 283.551849,610.010559 
	C285.048065,611.164185 286.679260,611.907349 288.597473,611.904175 
	C290.692139,611.900757 292.841766,611.643555 293.397034,609.246582 
	C293.968536,606.779419 291.759674,606.315186 290.087646,605.652466 
	C289.319916,605.348145 288.481293,605.222534 287.314575,604.888916 
z"/>
<path fill="#000000" opacity="1.000000" stroke="none" 
	d="
M184.381790,591.082764 
	C185.965149,591.728638 187.241241,592.159485 188.332153,592.873413 
	C189.414108,593.581543 189.789291,594.727295 188.952057,595.894470 
	C188.297134,596.807495 187.392136,596.993774 186.321396,596.478821 
	C183.403976,595.075989 179.150192,593.478149 178.096451,596.987427 
	C176.839218,601.174316 182.007660,600.770691 184.682968,601.649292 
	C188.607727,602.938293 191.357559,605.125671 190.942932,609.429810 
	C190.510956,613.913818 187.295166,615.895081 183.028442,616.265747 
	C180.150681,616.515625 177.364105,616.184448 174.941071,614.423096 
	C173.569672,613.426208 172.037292,612.304871 173.346603,610.382080 
	C174.547668,608.618286 175.936707,609.578125 177.163193,610.558289 
	C178.854111,611.909607 180.815918,612.024109 182.842285,611.830872 
	C184.452621,611.677307 185.875900,611.004517 186.210312,609.354370 
	C186.572433,607.567444 185.193863,606.647217 183.753372,606.072998 
	C182.527390,605.584290 181.219955,605.295593 179.942047,604.942017 
	C175.933136,603.832886 172.636490,601.840149 173.180511,597.110229 
	C173.719818,592.421082 177.413788,591.158386 181.511566,590.827576 
	C182.329086,590.761597 183.165604,590.930969 184.381790,591.082764 
z"/>
<path fill="#000000" opacity="1.000000" stroke="none" 
	d="
M195.212372,595.609863 
	C198.958099,590.622437 204.967041,589.361755 209.436066,592.310181 
	C210.555099,593.048462 211.827225,593.850891 211.045059,595.477417 
	C210.310333,597.005188 209.059799,596.915100 207.663437,596.287415 
	C204.881683,595.037109 200.933273,593.569153 199.922638,597.053711 
	C198.735840,601.145813 203.590683,600.745544 206.137741,601.619934 
	C211.254593,603.376831 213.233704,605.787781 212.440704,610.226379 
	C211.596466,614.951782 208.032501,616.033997 203.948853,616.291809 
	C201.023575,616.476501 198.310318,615.785706 195.970169,614.003784 
	C194.769913,613.089783 193.507080,611.932922 194.761139,610.269348 
	C195.773590,608.926331 197.077209,609.257141 198.256287,610.200928 
	C199.897018,611.514282 201.776596,612.036011 203.847900,611.897400 
	C205.570312,611.782104 207.296707,611.512878 207.655350,609.423462 
	C208.008194,607.367798 206.627411,606.397766 204.937927,605.820984 
	C203.524872,605.338684 202.057236,605.017761 200.638519,604.550232 
	C196.505386,603.188049 194.094681,600.676758 195.212372,595.609863 
z"/>
<path fill="#000000" opacity="1.000000" stroke="none" 
	d="
M490.588684,581.705505 
	C492.687134,581.987915 494.633728,582.247925 494.061127,584.606201 
	C493.565308,586.648376 491.846313,586.109985 490.355530,585.709106 
	C487.713531,584.998596 485.944519,586.194763 485.577698,588.685364 
	C485.124847,591.760010 487.578308,591.514221 489.604584,591.532837 
	C490.908661,591.544861 492.623962,591.240112 492.807770,593.033020 
	C493.028381,595.184998 491.158661,595.265564 489.669739,595.242310 
	C486.389496,595.191223 485.898315,597.174316 485.939423,599.828918 
	C486.003845,603.991150 485.990021,608.157288 485.877228,612.318237 
	C485.832367,613.975281 485.635620,615.972107 483.248413,615.703186 
	C481.146820,615.466431 481.540100,613.602173 481.538635,612.143799 
	C481.535614,609.145996 481.598541,606.147766 481.569183,603.150391 
	C481.533112,599.466492 482.678497,595.279114 476.773376,593.750061 
	C482.223083,589.985229 480.598969,579.955750 490.588684,581.705505 
z"/>
<path fill="#000000" opacity="1.000000" stroke="none" 
	d="
M683.932373,596.823120 
	C683.501526,595.186462 682.601868,594.030090 683.105957,592.622009 
	C686.802795,591.793945 686.793335,591.797607 689.494202,598.751160 
	C690.807800,602.133301 692.164429,605.498718 693.971985,610.058167 
	C695.758423,605.620361 696.906616,602.074890 698.589539,598.804565 
	C699.959595,596.141968 699.305237,591.185303 705.692932,592.015808 
	C702.754272,599.710754 700.066223,606.784851 697.345703,613.846497 
	C696.724426,615.459167 695.380249,615.996521 693.752502,615.956604 
	C691.775940,615.908142 690.842957,614.592041 690.205994,612.960815 
	C688.154968,607.707825 686.116516,602.450012 683.932373,596.823120 
z"/>
<path fill="#000000" opacity="1.000000" stroke="none" 
	d="
M506.639557,616.237793 
	C500.968994,616.547913 498.613678,613.662903 498.308014,608.766418 
	C498.121552,605.779419 498.158112,602.776917 498.146179,599.781128 
	C498.138428,597.827454 498.773865,595.605103 495.843414,595.103882 
	C495.688599,595.077393 495.537903,594.974670 495.405212,594.879639 
	C494.625793,594.321472 494.422668,592.824097 494.716919,592.783569 
	C498.655365,592.240906 497.403290,586.720825 501.074707,586.208008 
	C502.547974,586.002197 502.902649,587.517700 503.054413,588.644165 
	C503.464233,591.685852 505.721191,591.571228 507.911652,591.703308 
	C508.968109,591.767029 509.936768,592.128723 509.930145,593.408813 
	C509.925262,594.353638 509.213013,595.107666 508.371887,595.039856 
	C502.134766,594.536621 503.017334,598.895874 503.047882,602.691040 
	C503.062622,604.522400 503.055450,606.355042 503.125031,608.184570 
	C503.215088,610.550476 504.293640,611.933655 506.859985,611.787720 
	C508.290863,611.706360 510.165863,611.086731 510.398285,613.324646 
	C510.636078,615.614685 508.604675,615.749573 506.639557,616.237793 
z"/>
<path fill="#000000" opacity="1.000000" stroke="none" 
	d="
M907.471436,614.848877 
	C899.801636,617.935730 895.815308,615.377380 895.675293,607.717224 
	C895.644836,606.053101 895.614624,604.385742 895.679504,602.723633 
	C895.821655,599.079712 896.152893,595.387817 891.668579,593.709290 
	C892.824646,591.232056 896.337646,590.961487 895.940125,587.755554 
	C895.815491,586.750366 897.102173,586.224915 898.176025,586.231750 
	C899.354919,586.239197 900.122559,587.001404 900.114441,588.086914 
	C900.089050,591.451599 902.164856,591.765625 904.770508,591.598633 
	C905.927063,591.524536 907.246277,591.552429 907.281372,593.244873 
	C907.313354,594.789246 906.200195,595.342896 904.959229,595.203735 
	C900.547058,594.708740 900.032104,597.333923 900.230347,600.746521 
	C900.346008,602.737549 900.327271,604.743652 900.242126,606.737549 
	C900.098511,610.101257 900.961243,612.345337 905.009277,611.760559 
	C907.042053,611.466980 908.307739,612.195068 907.471436,614.848877 
z"/>
<path fill="#000000" opacity="1.000000" stroke="none" 
	d="
M739.201782,594.023132 
	C739.196838,598.500854 739.184753,602.484558 739.196472,606.468201 
	C739.203247,608.776978 738.900330,611.192993 741.739807,612.339661 
	C742.714111,612.733093 743.282471,613.647766 742.903564,614.774414 
	C742.443726,616.141663 741.221802,616.288879 740.044861,616.213989 
	C736.676636,615.999573 734.803894,614.026978 734.750977,610.778564 
	C734.612915,602.315796 734.674561,593.849365 734.698120,585.384583 
	C734.702332,583.867493 734.828857,582.136963 736.941833,582.250305 
	C738.906982,582.355835 739.112000,584.034790 739.151794,585.562866 
	C739.221008,588.216858 739.192322,590.873535 739.201782,594.023132 
z"/>
<path fill="#000000" opacity="1.000000" stroke="none" 
	d="
M573.639648,597.300232 
	C573.779480,595.222595 573.310181,593.516296 574.488281,591.640747 
	C577.177856,593.043213 579.859436,592.471069 582.663391,591.396179 
	C584.305664,590.766602 586.756287,590.786011 587.229858,593.030273 
	C587.855774,595.996643 585.367310,595.342957 583.594971,595.425903 
	C579.814148,595.602966 578.466248,598.146606 578.275879,601.437195 
	C578.064575,605.088135 578.150696,608.755371 578.037903,612.413391 
	C577.990112,613.963196 577.695984,615.629700 575.687073,615.582825 
	C573.530029,615.532593 573.709167,613.684814 573.691772,612.231567 
	C573.633911,607.406189 573.651489,602.579834 573.639648,597.300232 
z"/>
<path fill="#000000" opacity="1.000000" stroke="none" 
	d="
M222.381531,595.501160 
	C222.379272,601.238403 222.408646,606.527222 222.339279,611.814697 
	C222.318741,613.380737 222.704910,615.577515 220.354980,615.669983 
	C217.707733,615.774231 217.906281,613.448120 217.887909,611.684448 
	C217.831116,606.231689 217.856354,600.777588 217.899643,595.324463 
	C217.911438,593.838928 217.913940,592.104492 219.849487,591.813171 
	C222.360352,591.435181 222.290100,593.373291 222.381531,595.501160 
z"/>
<path fill="#000000" opacity="1.000000" stroke="none" 
	d="
M223.120392,584.922913 
	C222.301224,587.631348 220.772934,588.589294 218.703461,586.965332 
	C217.241974,585.818481 217.128098,583.910767 218.685394,582.761353 
	C220.796097,581.203491 222.291779,582.298645 223.120392,584.922913 
z"/>
</svg>