<svg version="1.1" id="Layer_1" xmlns="http://www.w3.org/2000/svg" xmlns:xlink="http://www.w3.org/1999/xlink" x="0px" y="0px"
	 width="100%" viewBox="0 0 1024 1024" enable-background="new 0 0 1024 1024" xml:space="preserve">
<path fill="#000000" opacity="1.000000" stroke="none" 
	d="
M543.878662,495.836670 
	C536.931458,490.919739 529.739136,488.069427 521.256958,489.176849 
	C515.609802,489.914154 512.345764,492.275238 511.867401,496.476044 
	C511.370728,500.837738 513.750183,504.063171 519.315674,505.607758 
	C525.718994,507.384918 532.297607,508.531281 538.698975,510.314575 
	C558.433289,515.812195 559.711914,538.050049 550.813965,549.506592 
	C546.240967,555.394531 539.678162,557.797668 532.565125,558.742126 
	C519.852905,560.430054 507.958130,558.416931 497.727997,550.115479 
	C491.971405,545.444214 491.916748,544.038269 496.445343,538.545288 
	C497.081055,537.774109 497.697693,536.987305 498.325897,536.209900 
	C502.139801,531.490173 502.342224,531.379639 506.551605,535.947083 
	C512.741150,542.663086 520.401794,544.805359 529.202332,543.797729 
	C534.554749,543.184875 537.942627,540.192993 538.541931,535.605042 
	C539.123535,531.151855 536.958435,527.422974 531.877502,525.768616 
	C526.037170,523.867065 519.939697,522.772461 514.027527,521.071533 
	C499.131439,516.786133 492.131409,505.441254 495.649414,491.648712 
	C497.040588,486.194641 500.200409,482.041901 504.847717,479.042694 
	C516.663269,471.417572 537.611206,472.379669 548.994812,480.761719 
	C552.236694,483.148804 553.061462,485.453186 550.206299,488.487762 
	C548.046204,490.783569 547.049744,494.022552 543.878662,495.836670 
z"/>
<path fill="#000000" opacity="1.000000" stroke="none" 
	d="
M442.220276,526.156860 
	C442.215637,535.128784 442.041016,543.626892 442.289490,552.112671 
	C442.418884,556.531494 441.140045,558.417175 436.383728,558.291809 
	C424.071777,557.966919 425.697327,559.155579 425.662048,547.543823 
	C425.590759,524.063293 425.767456,500.581177 425.547058,477.102509 
	C425.501160,472.214386 426.664948,470.300049 431.903107,470.541473 
	C443.454163,471.073883 442.088562,469.233612 442.219788,481.154968 
	C442.291229,487.647400 442.277649,494.140717 442.328918,500.633453 
	C442.331146,500.914825 442.599457,501.194122 442.745178,501.477051 
	C443.772705,501.876709 444.278534,501.050507 444.842834,500.527435 
	C452.351410,493.566589 461.083435,492.364685 470.366760,495.746582 
	C479.448761,499.055206 481.683807,507.166443 482.002808,515.552917 
	C482.489807,528.357361 482.138367,541.192810 482.203003,554.014771 
	C482.217926,556.975891 480.876495,558.208679 477.964783,558.208984 
	C463.127075,558.210449 465.846405,559.247559 465.661316,547.138000 
	C465.528992,538.480469 465.658661,529.819214 465.634735,521.159668 
	C465.611664,512.812500 463.254913,509.155792 457.482086,508.388855 
	C450.121887,507.411041 444.611664,511.212219 442.842682,518.747131 
	C442.317902,520.982422 442.414124,523.363647 442.220276,526.156860 
z"/>
<path fill="#000000" opacity="1.000000" stroke="none" 
	d="
M756.809937,539.084045 
	C763.274719,546.492310 774.400818,547.186584 780.305481,540.357971 
	C782.912415,537.343018 784.794128,537.450500 787.833313,539.256653 
	C795.696655,543.929688 796.136536,546.220520 789.177246,552.203003 
	C778.612427,561.285034 766.536865,561.113403 754.442505,556.371277 
	C743.108948,551.927429 738.480286,542.338989 737.738281,530.735718 
	C737.443359,526.123901 737.497131,521.499451 738.506165,516.847900 
	C743.747375,492.687042 770.435608,489.814026 784.518250,498.264801 
	C792.220398,502.886749 794.980835,510.498627 795.285522,519.057800 
	C795.706299,530.877625 795.601257,530.884460 783.975464,530.896423 
	C776.318298,530.904236 768.660889,530.863770 761.004272,530.929443 
	C759.052063,530.946106 756.999329,530.554749 755.057129,531.754944 
	C754.366516,534.337646 755.619629,536.529907 756.809937,539.084045 
M759.916382,519.674805 
	C766.173828,519.674805 772.431274,519.674805 778.605286,519.674805 
	C779.262878,512.248596 776.294250,508.201447 770.174377,507.386749 
	C763.086853,506.443237 756.680054,510.457031 755.552490,516.431335 
	C754.966309,519.537720 756.860535,519.695435 759.916382,519.674805 
z"/>
<path fill="#000000" opacity="1.000000" stroke="none" 
	d="
M296.810608,547.050171 
	C289.854248,534.900452 289.633850,522.524658 294.768066,510.283600 
	C302.970795,490.726532 329.792969,490.672211 340.875916,499.971466 
	C347.235199,505.307312 351.544769,520.115784 349.138824,528.026489 
	C348.213226,531.069763 345.642822,530.798096 343.416962,530.816406 
	C332.933289,530.902954 322.448395,530.846497 311.963959,530.841187 
	C310.996704,530.840698 310.029480,530.841125 309.095398,530.841125 
	C308.479523,536.599243 311.055115,541.258362 315.917603,543.546082 
	C321.563141,546.202209 329.501892,545.045593 333.696594,541.072876 
	C335.154938,539.691650 335.932800,536.740723 338.679291,537.803955 
	C342.085144,539.122375 345.348022,541.004944 347.740723,543.795044 
	C349.002747,545.266602 347.399750,546.944153 346.482056,548.256897 
	C339.907074,557.662415 330.298737,559.956665 319.657623,559.148682 
	C310.534058,558.455872 302.474762,555.290344 296.810608,547.050171 
M328.419678,508.892273 
	C319.897034,505.344086 312.290924,507.998505 309.882782,515.374023 
	C309.295807,517.171814 308.615173,519.425476 311.444641,519.518188 
	C318.522644,519.750244 325.613342,519.594849 332.805695,519.594849 
	C333.230927,515.042603 332.387451,511.702850 328.419678,508.892273 
z"/>
<path fill="#000000" opacity="1.000000" stroke="none" 
	d="
M589.676758,558.799011 
	C573.077576,555.250854 564.231689,543.221069 564.795227,525.441650 
	C565.570312,500.983917 586.588806,487.371185 609.234924,496.698975 
	C619.714417,501.015442 624.700073,509.515198 626.161865,520.207275 
	C626.832703,525.113586 626.879761,530.211365 625.885681,535.139282 
	C622.421753,552.311157 609.164673,561.061951 589.676758,558.799011 
M589.348816,509.631744 
	C585.911072,511.244141 584.196594,514.161255 583.110352,517.640198 
	C581.630310,522.380737 582.027893,527.219727 582.353027,532.016907 
	C582.862122,539.529297 587.302246,544.268921 593.924133,544.775024 
	C602.314880,545.416321 606.687561,542.238831 608.798950,534.067139 
	C609.946167,529.626953 609.994324,525.185425 609.095703,520.714478 
	C606.981750,510.195953 600.485352,506.317261 589.348816,509.631744 
z"/>
<path fill="#000000" opacity="1.000000" stroke="none" 
	d="
M284.889832,490.005859 
	C281.405853,490.000397 278.385101,490.221893 275.413208,489.935883 
	C270.696350,489.481934 268.976624,491.183472 269.045715,496.086334 
	C269.289703,513.409485 269.134918,530.738220 269.136993,548.064880 
	C269.138184,558.287170 269.142944,558.287231 258.712952,558.228333 
	C258.546356,558.227417 258.377075,558.207703 258.213531,558.229858 
	C253.277756,558.898193 251.517517,556.958435 251.593216,551.815186 
	C251.865356,533.326294 251.506027,514.827698 251.821960,496.340210 
	C251.911545,491.097778 250.091171,489.574127 245.223038,489.939667 
	C241.081131,490.250671 236.896057,489.937469 232.733261,490.035645 
	C229.443008,490.113220 227.968765,488.848083 227.845154,485.363892 
	C227.481277,475.107117 227.493378,474.971832 237.656540,474.966858 
	C253.317184,474.959198 268.977844,474.956268 284.638489,474.962311 
	C292.366150,474.965302 292.366150,474.976410 292.356171,482.634857 
	C292.346741,489.866516 292.346741,489.866516 284.889832,490.005859 
z"/>
<path fill="#000000" opacity="1.000000" stroke="none" 
	d="
M687.298279,548.595947 
	C680.787231,530.963501 674.431580,513.689453 667.877136,495.875122 
	C673.401978,494.477570 678.177856,494.957336 682.902832,495.248932 
	C685.401001,495.403137 685.745544,497.811218 686.389832,499.631256 
	C690.053589,509.981445 693.639343,520.359253 697.268250,530.721863 
	C698.080688,533.041809 698.959290,535.338562 699.918091,537.946899 
	C702.110840,536.648743 702.280090,534.745544 702.846741,533.138672 
	C706.554443,522.625366 710.414978,512.159302 713.804199,501.543274 
	C715.349304,496.703613 717.690125,494.129669 723.036682,494.969543 
	C725.941223,495.425781 729.021545,494.413574 731.820496,495.840088 
	C732.890137,497.859619 731.612427,499.500549 731.019897,501.120239 
	C724.730713,518.310364 718.213013,535.418396 712.095337,552.668640 
	C710.533997,557.071106 708.179871,558.911255 703.667664,558.248413 
	C702.689636,558.104736 701.672241,558.235535 700.673096,558.227478 
	C688.605286,558.129944 691.622314,559.197327 687.298279,548.595947 
z"/>
<path fill="#000000" opacity="1.000000" stroke="none" 
	d="
M379.953125,511.940826 
	C374.179382,520.402466 374.206268,529.119751 377.733368,537.910583 
	C379.472687,542.245544 383.149628,544.470398 387.923309,544.804932 
	C393.326904,545.183777 398.174988,543.850769 400.693268,538.849121 
	C403.453827,533.366333 403.577240,534.034668 412.780975,538.897705 
	C417.289948,541.280090 414.675903,544.244873 413.190216,546.840027 
	C407.938354,556.013916 397.097717,560.678345 385.173004,559.083618 
	C372.117096,557.337585 362.903320,549.543030 359.870483,537.486511 
	C358.009583,530.088867 358.036041,522.615417 359.992462,515.249573 
	C363.678528,501.371521 377.465942,492.413666 392.193787,494.071564 
	C400.019531,494.952454 407.229858,496.923920 412.205780,503.742310 
	C414.595062,507.016266 414.928406,509.698425 410.910309,511.889801 
	C409.602722,512.602905 408.360840,513.490723 407.229828,514.462585 
	C404.438568,516.861145 402.514313,517.004333 400.062775,513.522827 
	C395.526825,507.081421 387.437561,506.578735 379.953125,511.940826 
z"/>
<path fill="#000000" opacity="1.000000" stroke="none" 
	d="
M639.672485,518.999878 
	C639.674377,504.360077 639.785889,490.218872 639.609802,476.081299 
	C639.559509,472.043915 640.782104,470.469513 644.989807,470.591858 
	C657.955139,470.968933 656.204529,469.102173 656.268799,481.639984 
	C656.365173,500.437103 656.337158,519.235291 656.253967,538.032532 
	C656.236450,542.002869 656.822937,545.086609 661.789795,544.900085 
	C662.401733,544.877136 663.318665,545.063538 663.603088,545.484619 
	C665.896729,548.880127 665.667847,552.853577 665.241272,556.555786 
	C664.947388,559.106812 661.902771,558.910522 659.861755,559.147217 
	C647.730225,560.554016 639.931152,553.715759 639.716003,541.457886 
	C639.587524,534.140564 639.679932,526.819397 639.672485,518.999878 
z"/>
<path fill="#000000" opacity="1.000000" stroke="none" 
	d="
M469.073944,606.982300 
	C468.955444,609.602539 468.930298,611.766968 468.678162,613.904663 
	C468.553314,614.963013 467.732758,615.656799 466.559540,615.599976 
	C465.352112,615.541443 464.729767,614.726440 464.724884,613.642029 
	C464.694946,606.987122 464.710632,600.331665 464.787537,593.677246 
	C464.793945,593.118774 465.602417,592.066406 465.636383,592.082642 
	C470.286774,594.309631 474.857574,588.724121 479.471680,591.936279 
	C480.417328,592.594543 481.329498,593.300903 482.344788,594.049805 
	C483.939880,593.162598 485.425110,592.078613 487.084015,591.461304 
	C492.459076,589.460815 497.004547,592.325195 497.276398,597.995789 
	C497.507355,602.812439 497.368744,607.647644 497.358948,612.474548 
	C497.356232,613.811829 497.359863,615.401306 495.599426,615.559875 
	C493.613098,615.738708 493.110535,614.183838 493.075989,612.578125 
	C492.993591,608.751038 493.064240,604.920410 492.957733,601.094360 
	C492.884521,598.464661 493.207397,595.432495 489.222076,595.304321 
	C485.371948,595.180359 483.843109,597.755676 483.505676,600.949402 
	C483.140137,604.409058 483.421051,607.932617 483.294067,611.423706 
	C483.232239,613.122681 483.841125,615.574707 481.084869,615.599731 
	C478.387390,615.624084 478.783661,613.240295 478.747925,611.488281 
	C478.673248,607.827576 478.710419,604.164429 478.711914,600.502319 
	C478.713043,597.770264 478.184906,595.373840 474.781189,595.312134 
	C471.628998,595.254944 469.783112,597.046570 469.334076,600.038025 
	C469.015228,602.162354 469.144409,604.353943 469.073944,606.982300 
z"/>
<path fill="#000000" opacity="1.000000" stroke="none" 
	d="
M580.347778,588.156982 
	C580.335449,596.289917 580.352966,603.946045 580.298706,611.601624 
	C580.277344,614.618835 580.093994,617.604858 575.853577,614.690796 
	C574.385681,613.682007 573.391907,615.163208 572.234924,615.561401 
	C566.236755,617.625610 561.118164,615.325623 559.031006,609.393982 
	C557.908020,606.202271 557.653259,602.962769 558.548828,599.588379 
	C560.651489,591.665405 565.378906,589.588989 575.821411,592.598694 
	C575.821411,590.325256 575.773438,588.203186 575.836975,586.084595 
	C575.885742,584.457336 575.659790,582.345337 577.937683,582.205566 
	C580.796753,582.030151 580.127747,584.489380 580.332642,586.183105 
	C580.392212,586.675415 580.346375,587.180603 580.347778,588.156982 
M572.389648,595.957581 
	C565.274231,593.203125 561.968262,598.236877 563.269958,606.818542 
	C563.724670,609.816345 565.422485,611.632935 568.522705,611.845520 
	C571.633972,612.058777 574.424500,611.037048 575.215698,607.883057 
	C576.223816,603.863953 576.821655,599.618591 572.389648,595.957581 
z"/>
<path fill="#000000" opacity="1.000000" stroke="none" 
	d="
M506.908875,582.166870 
	C511.208344,584.849121 508.002686,589.115906 509.710297,592.382507 
	C510.214935,592.850891 510.790497,592.534363 511.416077,592.304993 
	C518.110291,589.850159 522.885559,591.269897 525.464233,596.457336 
	C528.562378,602.689880 526.947449,611.320435 522.043030,614.657349 
	C519.711426,616.243713 517.121948,616.549561 514.392090,616.131775 
	C512.016235,615.768188 509.954956,613.259521 507.115875,615.638000 
	C506.124969,616.468201 504.747131,614.883118 504.749512,613.311523 
	C504.764282,603.491089 504.799652,593.670471 504.880585,583.850403 
	C504.887909,582.960938 505.615875,582.411438 506.908875,582.166870 
M522.058105,604.352478 
	C521.715759,597.028137 518.671692,593.860352 513.596558,595.546997 
	C510.252197,596.658447 508.531281,600.943542 509.337067,606.193237 
	C509.891418,609.804626 511.892853,611.887329 515.655701,611.887878 
	C520.064758,611.888550 521.754395,609.207642 522.058105,604.352478 
z"/>
<path fill="#000000" opacity="1.000000" stroke="none" 
	d="
M423.852875,616.287354 
	C412.924835,615.687744 407.559753,608.614990 408.737671,596.938538 
	C409.710083,587.299316 416.788239,582.086304 426.694489,583.712097 
	C429.614929,584.191467 432.056396,585.491333 433.744720,587.974792 
	C434.552704,589.163330 434.888153,590.430359 433.501923,591.498840 
	C432.334656,592.398499 431.493347,591.821350 430.444855,591.036865 
	C424.267242,586.414795 419.323578,586.523987 415.735535,591.226990 
	C411.872803,596.289917 412.720978,606.534790 417.298096,610.101440 
	C421.054565,613.028625 426.997711,612.268494 430.177338,608.364990 
	C431.224976,607.078857 431.997955,605.154236 434.010468,606.799561 
	C435.842590,608.297485 434.503876,609.858276 433.566315,611.164246 
	C431.303345,614.316162 428.206940,616.078369 423.852875,616.287354 
z"/>
<path fill="#000000" opacity="1.000000" stroke="none" 
	d="
M442.612610,602.324402 
	C445.360321,601.488525 447.785950,600.908508 450.148834,600.136292 
	C451.428680,599.718140 452.677521,598.931152 452.352356,597.275513 
	C452.042877,595.699524 450.693634,595.371399 449.307526,595.212158 
	C447.019592,594.949219 445.075714,595.684509 443.315979,597.119324 
	C442.357697,597.900696 441.267151,598.386108 440.278076,597.146667 
	C439.238464,595.843872 439.570404,594.615845 440.794678,593.692139 
	C444.326630,591.027222 448.188843,589.991089 452.490448,591.627197 
	C456.405304,593.116089 457.017151,596.346680 457.335602,600.060242 
	C457.713562,604.467651 455.423218,609.425476 459.750122,613.164673 
	C460.403351,613.729187 460.141083,614.733948 459.446014,615.372986 
	C458.473419,616.267273 457.084564,616.496765 456.225525,615.765869 
	C453.862366,613.755249 451.853821,614.771118 449.461853,615.730225 
	C445.264832,617.412964 440.551361,615.858887 439.117493,612.339111 
	C437.497162,608.361572 438.250488,604.830505 442.612610,602.324402 
M450.503174,610.976562 
	C452.440887,609.099976 453.325592,606.982971 452.090546,604.114197 
	C449.042542,605.006714 445.470978,604.223694 443.547852,607.418091 
	C442.748444,608.746033 443.120209,610.358704 444.420593,611.494019 
	C446.268402,613.107300 448.104218,612.555176 450.503174,610.976562 
z"/>
<path fill="#000000" opacity="1.000000" stroke="none" 
	d="
M610.681335,595.968750 
	C607.685669,594.680725 605.212280,595.200928 602.921936,596.911011 
	C601.789368,597.756653 600.608521,598.439331 599.514587,596.913147 
	C598.316467,595.241577 599.295593,594.037659 600.641602,593.205994 
	C604.340759,590.920410 608.302124,589.914673 612.470520,591.782593 
	C616.373474,593.531555 616.188354,597.111938 616.415161,600.681763 
	C616.684265,604.920044 614.642029,609.741821 619.119080,613.151245 
	C619.729858,613.616394 619.605286,614.691528 618.872559,615.367310 
	C618.056335,616.120178 616.785400,616.475220 616.134033,615.879883 
	C613.315125,613.303650 610.830078,615.074951 608.060364,615.954224 
	C603.533142,617.391479 599.154358,615.108093 597.992920,611.115906 
	C596.737732,606.801758 598.881836,603.254456 603.749695,601.720032 
	C605.485535,601.172974 607.327515,600.932434 609.020813,600.288513 
	C610.829346,599.600708 612.397034,598.544861 610.681335,595.968750 
M602.859314,607.267456 
	C601.967407,609.196289 602.351990,610.748047 604.197510,611.892639 
	C606.212891,613.142578 608.105408,612.345886 609.696045,611.219727 
	C612.169983,609.468262 612.205200,606.975708 611.331482,604.210876 
	C608.305054,604.565979 605.537842,604.761597 602.859314,607.267456 
z"/>
<path fill="#000000" opacity="1.000000" stroke="none" 
	d="
M534.253967,594.287109 
	C540.102173,590.084167 545.187561,589.844910 549.658936,593.294189 
	C553.635193,596.361511 555.153748,603.795654 552.947571,609.393677 
	C550.994019,614.350708 546.617493,616.849915 540.946533,616.246948 
	C534.843872,615.598083 530.305115,609.627380 531.032471,602.903748 
	C531.352417,599.945801 531.926636,596.962830 534.253967,594.287109 
M536.625000,608.465881 
	C539.705811,612.120361 543.617004,613.145813 546.464966,610.708130 
	C550.008911,607.674683 549.575867,603.577209 548.598816,599.620300 
	C547.811096,596.430054 545.443176,595.145935 542.204529,595.249939 
	C538.882263,595.356689 536.937744,597.069885 536.282410,600.229370 
	C535.770081,602.699524 535.912170,605.198914 536.625000,608.465881 
z"/>
<path fill="#000000" opacity="1.000000" stroke="none" 
	d="
M592.066284,593.699890 
	C592.176880,600.089355 592.232849,606.052063 592.219971,612.014587 
	C592.216431,613.668945 592.236084,615.656921 589.863892,615.599121 
	C587.449585,615.540344 587.718262,613.466248 587.703064,611.871277 
	C587.649292,606.239563 587.592590,600.605225 587.708679,594.975464 
	C587.782776,591.379089 589.080322,590.120728 592.066284,593.699890 
z"/>
<path fill="#000000" opacity="1.000000" stroke="none" 
	d="
M590.571350,582.220825 
	C592.866699,583.736694 593.535706,585.415894 591.421143,587.085571 
	C589.794189,588.370239 588.116455,587.656860 587.426208,585.915222 
	C586.463623,583.486450 587.747620,582.241760 590.571350,582.220825 
z"/>
</svg>